<svg xmlns="http://www.w3.org/2000/svg" xmlns:xlink="http://www.w3.org/1999/xlink" width="1920" zoomAndPan="magnify" viewBox="0 0 1440 959.999988" height="1280" preserveAspectRatio="xMidYMid meet" version="1.0"><path fill="#303134" d="M 1269.171875 481.859375 C 1270.558594 479.4375 1272.03125 476.753906 1272.636719 475.714844 C 1270.210938 467.320312 1267.355469 460.222656 1266.316406 452.863281 C 1265.625 448.015625 1264.066406 445.765625 1259.566406 444.382812 C 1247.792969 440.660156 1238.097656 433.820312 1231 423.691406 C 1227.972656 419.367188 1224.421875 418.238281 1219.316406 418.238281 C 1110.683594 418.414062 1002.050781 418.5 893.421875 418.414062 C 798.984375 418.414062 704.460938 418.328125 610.027344 418.066406 C 603.363281 418.066406 600.589844 419.886719 601.109375 426.808594 C 601.628906 433.386719 601.199219 440.140625 601.199219 448.535156 C 595.917969 445.074219 592.195312 442.648438 588.472656 440.3125 C 580.25 446.113281 572.460938 451.652344 564.667969 457.191406 C 564.496094 451.21875 565.707031 446.546875 567.179688 441.957031 C 571.679688 427.589844 571.679688 427.675781 559.128906 418.933594 C 555.148438 416.164062 551.339844 413.21875 547.445312 410.363281 C 547.789062 409.671875 548.222656 408.976562 548.570312 408.285156 C 556.1875 408.285156 563.71875 407.851562 571.25 408.460938 C 576.875 408.890625 579.644531 406.902344 581.203125 401.535156 C 583.367188 394.003906 586.308594 386.644531 588.90625 379.203125 C 589.511719 379.375 590.117188 379.546875 590.722656 379.722656 C 593.40625 388.378906 596.089844 397.035156 598.773438 405.6875 C 599.292969 405.601562 599.8125 405.601562 600.332031 405.515625 C 600.332031 384.742188 600.332031 363.96875 600.332031 342.5 C 710.695312 342.5 820.019531 342.5 928.738281 342.5 C 917.222656 301.644531 921.378906 261.566406 929.863281 221.492188 C 926.832031 225.300781 924.839844 229.628906 921.726562 232.917969 C 919.476562 235.339844 915.753906 236.292969 912.722656 237.9375 C 912.03125 234.300781 909.78125 230.148438 910.820312 227.117188 C 914.28125 217.164062 918.695312 207.46875 923.109375 197.859375 C 926.398438 190.675781 931.332031 186.089844 939.039062 190.589844 C 941.632812 187.386719 943.277344 184.011719 945.960938 182.367188 C 951.933594 178.816406 958.6875 176.566406 964.574219 172.933594 C 970.371094 169.382812 975.910156 169.296875 982.402344 170.421875 C 991.144531 171.894531 1000.234375 171.71875 1009.496094 172.238281 C 1008.023438 156.226562 1006.554688 154.925781 994.433594 157.265625 C 989.675781 158.21875 986.210938 157.4375 986.386719 151.550781 C 986.386719 149.648438 986.039062 147.828125 985.867188 146.097656 C 977.988281 143.761719 973.660156 144.453125 964.226562 150.082031 C 957.648438 153.976562 951.503906 158.648438 944.578125 161.679688 C 940.507812 163.410156 934.105469 164.449219 930.726562 162.457031 C 922.503906 157.699219 915.667969 150.167969 904.152344 157.179688 C 903.722656 156.3125 903.375 155.535156 902.941406 154.667969 C 904.847656 147.917969 906.75 141.25 909.261719 132.507812 C 905.105469 135.625 902.078125 137.960938 899.046875 140.125 C 889.4375 147.136719 879.917969 154.320312 869.964844 160.8125 C 867.105469 162.71875 862.777344 162.371094 859.058594 162.976562 C 854.902344 163.671875 850.574219 163.757812 846.765625 165.140625 C 840.964844 167.304688 835.511719 170.421875 829.886719 173.191406 C 829.539062 172.671875 829.28125 172.238281 828.933594 171.71875 C 831.789062 166.441406 834.648438 161.074219 838.023438 154.839844 C 825.386719 155.878906 814.480469 156.832031 803.484375 157.699219 C 803.484375 157.003906 803.484375 156.3125 803.398438 155.535156 C 823.308594 138.566406 843.214844 121.6875 862.777344 104.984375 C 855.507812 104.03125 847.285156 102.992188 838.976562 102.039062 C 837.503906 101.867188 835.773438 102.558594 834.300781 103.078125 C 821.058594 108.445312 819.84375 108.445312 810.238281 98.316406 C 803.140625 90.789062 795.175781 87.324219 784.703125 89.488281 C 779.164062 90.613281 773.277344 90.527344 767.652344 90.441406 C 757.175781 90.269531 748.867188 86.199219 742.980469 77.023438 C 741.507812 74.773438 737.527344 72.871094 734.671875 72.871094 C 693.035156 72.523438 651.402344 72.523438 609.679688 72.4375 C 607.082031 72.4375 604.488281 72.4375 601.109375 72.4375 C 601.109375 78.0625 601.109375 82.476562 601.109375 88.105469 C 596.003906 85.074219 591.847656 82.652344 587.867188 80.226562 C 579.558594 86.027344 571.59375 91.480469 561.8125 98.316406 C 564.667969 87.410156 566.921875 78.667969 569.515625 68.800781 C 553.15625 67.328125 538.097656 65.945312 522.949219 64.648438 C 513.425781 63.78125 503.992188 62.742188 494.46875 62.308594 C 481.226562 61.617188 474.820312 69.925781 478.714844 82.132812 C 480.273438 86.890625 481.746094 91.738281 483.21875 96.5 C 482.699219 96.847656 482.265625 97.191406 481.746094 97.539062 C 473.609375 92 465.386719 86.460938 457.164062 80.917969 C 448.855469 86.546875 440.890625 91.914062 431.023438 98.578125 C 433.53125 89.230469 435.871094 82.304688 437.082031 75.207031 C 437.515625 72.78125 436.214844 68.800781 434.3125 67.328125 C 422.453125 58.242188 410.074219 49.84375 394.148438 49.929688 C 390.945312 49.929688 387.65625 49.066406 384.453125 48.546875 C 366.796875 45.605469 349.222656 42.660156 331.304688 39.71875 C 331.394531 47.59375 334.25 51.144531 342.125 50.363281 C 349.398438 49.671875 356.753906 50.191406 364.027344 50.191406 C 364.113281 51.144531 364.113281 52.007812 364.199219 52.960938 C 356.582031 58.585938 349.050781 64.214844 341.433594 69.839844 C 344.203125 79.1875 346.800781 88.105469 349.398438 96.933594 C 341.347656 93.382812 335.113281 88.535156 328.363281 84.640625 C 326.027344 83.34375 321.699219 83.257812 319.363281 84.640625 C 312.4375 88.535156 306.03125 93.382812 297.289062 99.355469 C 299.800781 89.835938 301.269531 82.738281 303.695312 75.984375 C 305.425781 71.136719 304.128906 68.628906 300.058594 66.03125 C 293.652344 61.964844 287.507812 57.289062 281.273438 52.875 C 281.621094 52.183594 281.96875 51.402344 282.226562 50.710938 C 288.375 50.710938 294.605469 50.710938 300.75 50.710938 C 313.648438 50.796875 313.648438 50.796875 315.292969 37.207031 C 312.4375 36.515625 309.582031 35.824219 306.722656 35.214844 C 285.601562 31.0625 264.484375 27.253906 243.449219 22.664062 C 212.632812 16 181.90625 8.816406 151.175781 1.632812 C 145.378906 0.246094 141.222656 0.507812 140.53125 8.902344 C 148.0625 5.871094 153.167969 8.554688 154.207031 14.960938 C 154.984375 19.460938 154.207031 27.078125 151.4375 28.722656 C 144.339844 32.878906 136.027344 37.121094 127.113281 31.0625 C 121.488281 27.253906 115.253906 24.398438 109.367188 21.105469 C 104.609375 18.511719 99.761719 15.828125 95 13.230469 C 94.132812 13.75 93.183594 14.183594 92.316406 14.703125 C 95.519531 27.167969 98.808594 39.632812 101.925781 52.09375 C 102.53125 54.691406 103.914062 57.980469 102.878906 59.800781 C 99.328125 66.117188 100.195312 71.398438 105.472656 76.246094 C 104.175781 77.371094 103.398438 78.324219 102.445312 78.667969 C 96.558594 81.179688 95.953125 86.199219 96.296875 91.652344 C 96.730469 97.625 101.664062 97.367188 105.648438 98.835938 C 109.714844 100.308594 113.351562 102.90625 117.160156 104.984375 C 114.214844 106.453125 112.140625 105.761719 110.0625 105.847656 C 103.914062 105.933594 97.597656 106.628906 95.261719 113.550781 C 92.488281 121.6875 90.585938 130.171875 88.074219 139 C 94.480469 139 100.195312 138.742188 105.820312 139.085938 C 110.839844 139.433594 112.832031 137.441406 114.128906 132.507812 C 116.035156 125.066406 119.148438 117.96875 121.660156 110.78125 C 125.988281 117.792969 128.757812 124.632812 130.488281 131.644531 C 131.875 137.527344 134.730469 139.519531 140.703125 139.175781 C 148.320312 138.65625 155.9375 139.085938 163.554688 139.085938 C 163.640625 139.867188 163.726562 140.730469 163.726562 141.511719 C 158.015625 145.578125 152.476562 149.90625 146.417969 153.542969 C 141.570312 156.484375 140.355469 159.601562 142.609375 164.96875 C 145.292969 171.460938 146.9375 178.296875 149.011719 185.050781 C 140.789062 181.5 134.472656 176.914062 127.632812 173.191406 C 125.46875 171.980469 121.574219 172.152344 119.410156 173.363281 C 112.746094 177.085938 106.425781 181.5 97.941406 187.039062 C 100.800781 177.347656 103.050781 170.160156 104.867188 162.804688 C 105.300781 160.898438 105.042969 157.523438 103.742188 156.570312 C 98.117188 152.15625 91.972656 148.347656 86.171875 144.453125 C 79.332031 159.167969 73.707031 173.363281 66.261719 186.695312 C 59.683594 198.464844 58.210938 209.460938 63.234375 222.183594 C 65.570312 228.070312 67.992188 230.234375 74.140625 229.714844 C 81.496094 229.195312 89.027344 229.628906 96.472656 229.628906 C 96.558594 230.492188 96.730469 231.273438 96.816406 232.136719 C 90.238281 236.8125 83.746094 241.660156 76.996094 245.988281 C 73.359375 248.324219 72.496094 250.574219 74.054688 254.644531 C 76.648438 261.566406 78.46875 268.839844 81.410156 278.1875 C 73.445312 272.992188 67.300781 269.445312 61.847656 265.203125 C 52.671875 258.105469 48.34375 267.800781 42.371094 270.742188 C 36.140625 273.859375 41.421875 278.273438 43.238281 281.648438 C 49.039062 292.816406 48.519531 297.578125 40.121094 305.539062 C 29.820312 315.496094 29.648438 320.253906 36.660156 333.414062 C 39.34375 338.433594 42.027344 346.050781 40.035156 350.550781 C 31.984375 369.335938 39.167969 384.65625 48.519531 401.878906 C 50.421875 393.398438 51.980469 386.472656 53.539062 379.636719 C 54.316406 379.546875 55.097656 379.546875 55.875 379.460938 C 58.300781 386.734375 61.242188 393.917969 63.058594 401.359375 C 64.445312 407.160156 66.957031 409.410156 73.101562 408.976562 C 80.976562 408.371094 88.941406 408.804688 96.90625 408.804688 C 97.078125 409.671875 97.164062 410.535156 97.335938 411.402344 C 91.105469 415.644531 85.132812 420.230469 78.640625 423.953125 C 73.273438 426.984375 72.410156 430.183594 74.832031 435.8125 C 77.601562 442.128906 79.246094 448.882812 81.84375 456.757812 C 77.253906 453.988281 74.054688 452.085938 71.195312 450.351562 C 68.339844 456.585938 65.570312 462.296875 63.058594 468.183594 C 58.386719 479.003906 64.183594 491.035156 73.964844 491.035156 C 254.183594 490.863281 434.484375 490.691406 614.699219 490.601562 C 834.734375 490.515625 1054.679688 490.515625 1274.714844 490.515625 C 1278.089844 490.515625 1281.464844 490.515625 1286.3125 490.515625 C 1282.675781 479.871094 1273.761719 487.488281 1269.171875 481.859375 Z M 580.683594 222.445312 C 582.847656 214.394531 585.964844 206.601562 588.648438 198.726562 C 598.253906 220.453125 605.09375 242.09375 600.332031 266.589844 C 596.265625 264.078125 592.628906 261.914062 588.648438 259.578125 C 580.769531 265.117188 572.632812 270.742188 564.582031 276.371094 C 564.0625 276.023438 563.542969 275.589844 563.023438 275.246094 C 565.015625 268.320312 566.746094 261.394531 569.085938 254.558594 C 570.816406 249.710938 569.949219 246.59375 565.449219 243.738281 C 559.390625 240.015625 553.675781 235.515625 547.878906 231.359375 C 548.136719 230.492188 548.308594 229.628906 548.570312 228.761719 C 556.273438 228.761719 563.976562 228.503906 571.59375 228.847656 C 576.441406 229.195312 579.210938 227.808594 580.683594 222.445312 Z M 482.613281 138.046875 C 489.710938 138.046875 496.808594 137.789062 503.90625 138.136719 C 509.53125 138.394531 512.820312 137.097656 514.207031 130.863281 C 515.765625 123.59375 518.792969 116.753906 521.21875 109.65625 C 521.910156 109.65625 522.6875 109.65625 523.382812 109.570312 C 525.71875 116.667969 528.574219 123.679688 530.304688 130.863281 C 531.863281 137.097656 535.066406 139.085938 541.210938 138.65625 C 548.398438 138.136719 555.582031 138.566406 562.765625 138.566406 C 562.9375 139.347656 563.199219 140.039062 563.371094 140.820312 C 557.3125 145.058594 551.425781 149.734375 545.105469 153.457031 C 540.605469 156.140625 540 158.910156 541.644531 163.496094 C 544.070312 170.25 546.058594 177.261719 546.578125 185.308594 C 540.347656 181.15625 533.941406 177.261719 528.054688 172.757812 C 524.417969 169.988281 521.996094 169.644531 518.1875 172.671875 C 512.300781 177.347656 505.722656 181.15625 497.933594 184.445312 C 499.75 177.867188 501.308594 171.113281 503.644531 164.707031 C 505.636719 159.253906 505.117188 155.792969 499.578125 152.761719 C 493.519531 149.386719 487.976562 144.972656 482.265625 141.078125 C 482.265625 139.953125 482.4375 139 482.613281 138.046875 Z M 439.9375 228.933594 C 444.527344 229.109375 446.691406 227.550781 447.902344 223.050781 C 450.152344 215.085938 453.269531 207.296875 457.941406 199.417969 C 460.539062 207.210938 463.394531 215 465.644531 222.875 C 466.945312 227.636719 469.195312 229.367188 474.214844 229.109375 C 482.179688 228.675781 490.140625 229.023438 498.105469 229.023438 C 498.277344 229.886719 498.453125 230.667969 498.539062 231.53125 C 492.21875 236.035156 486.074219 240.707031 479.496094 244.949219 C 475.859375 247.285156 475.082031 249.625 476.640625 253.691406 C 479.324219 260.703125 481.3125 267.886719 483.652344 274.984375 C 483.042969 275.332031 482.4375 275.675781 481.746094 275.9375 C 475.253906 271.609375 468.589844 267.539062 462.355469 262.78125 C 458.980469 260.183594 456.730469 259.835938 453.269531 262.519531 C 446.691406 267.539062 439.679688 271.867188 431.367188 275.417969 C 433.101562 269.53125 434.484375 263.558594 436.648438 257.847656 C 439.246094 251.007812 438.554688 246.332031 431.367188 242.613281 C 425.570312 239.667969 420.550781 235.253906 415.097656 231.445312 C 415.355469 230.582031 415.613281 229.714844 415.875 228.847656 C 424.011719 228.847656 431.976562 228.675781 439.9375 228.933594 Z M 350.003906 138.136719 C 357.449219 138.136719 364.890625 137.875 372.25 138.222656 C 377.441406 138.480469 380.039062 137.011719 381.335938 131.644531 C 383.15625 124.113281 386.011719 116.839844 388.433594 109.484375 C 389.128906 109.484375 389.820312 109.398438 390.511719 109.398438 C 392.9375 117.015625 395.707031 124.546875 397.785156 132.164062 C 399.082031 136.921875 401.246094 138.828125 406.351562 138.480469 C 414.058594 138.046875 421.761719 138.394531 429.464844 138.394531 C 429.636719 139.171875 429.898438 139.953125 430.070312 140.730469 C 424.359375 144.628906 418.90625 148.867188 413.019531 152.417969 C 407.996094 155.359375 406.351562 158.476562 408.777344 164.277344 C 411.460938 170.59375 413.019531 177.433594 415.007812 184.011719 C 414.316406 184.269531 413.625 184.53125 412.933594 184.703125 C 406.871094 180.636719 401.074219 176.132812 394.667969 172.585938 C 392.332031 171.289062 388.003906 171.375 385.664062 172.757812 C 379.085938 176.394531 373.027344 181.070312 364.976562 184.53125 C 366.621094 178.816406 367.660156 172.933594 369.910156 167.480469 C 373.027344 160.035156 371.988281 155.015625 364.285156 151.117188 C 358.917969 148.4375 354.332031 144.195312 349.3125 140.644531 C 349.65625 139.867188 349.832031 139 350.003906 138.136719 Z M 302.828125 229.023438 C 310.617188 229.800781 314.6875 227.378906 316.332031 219.328125 C 317.71875 212.574219 320.746094 206.082031 323.082031 199.503906 C 323.863281 199.417969 324.554688 199.332031 325.332031 199.246094 C 327.929688 207.210938 330.875 215.171875 332.949219 223.308594 C 334.164062 227.984375 336.328125 229.367188 340.914062 229.109375 C 348.878906 228.761719 356.839844 229.023438 364.804688 229.023438 C 364.976562 229.800781 365.152344 230.582031 365.324219 231.273438 C 359.003906 235.6875 352.859375 240.363281 346.367188 244.515625 C 342.214844 247.199219 341.085938 249.882812 342.992188 254.558594 C 345.675781 261.222656 347.578125 268.148438 348.273438 276.109375 C 340.308594 270.742188 332.257812 265.375 323.863281 259.75 C 315.726562 265.289062 307.503906 270.832031 297.203125 277.753906 C 299.710938 269.011719 301.183594 262.433594 303.433594 256.203125 C 305.597656 250.230469 304.820312 246.246094 298.847656 242.957031 C 293.046875 239.753906 287.765625 235.425781 282.3125 231.617188 C 282.402344 230.667969 282.574219 229.714844 282.660156 228.847656 C 289.410156 228.847656 296.164062 228.328125 302.828125 229.023438 Z M 248.382812 132.164062 C 250.199219 124.632812 253.230469 117.449219 257.730469 109.917969 C 259.980469 116.582031 262.839844 123.160156 264.308594 130 C 265.867188 137.011719 269.503906 139 276.253906 138.394531 C 282.921875 137.789062 289.671875 138.308594 296.421875 138.308594 C 296.769531 139.085938 297.117188 139.867188 297.460938 140.644531 C 292.355469 144.195312 287.507812 148.003906 282.140625 151.117188 C 275.910156 154.753906 273.226562 158.734375 276.949219 166.09375 C 279.628906 171.546875 280.84375 177.691406 281.1875 184.789062 C 275.042969 180.722656 268.722656 176.828125 262.839844 172.5 C 258.941406 169.730469 256 169.46875 252.105469 172.671875 C 246.480469 177.261719 240.246094 180.980469 234.1875 185.136719 C 233.582031 184.789062 232.976562 184.53125 232.371094 184.183594 C 234.1875 178.039062 235.660156 171.804688 237.824219 165.746094 C 240.074219 159.601562 239.378906 155.273438 232.976562 151.898438 C 227.089844 148.78125 221.984375 144.453125 216.441406 140.644531 C 216.617188 139.867188 216.789062 139 216.960938 138.222656 C 224.578125 138.222656 232.28125 138.046875 239.898438 138.308594 C 244.660156 138.65625 247.085938 137.269531 248.382812 132.164062 Z M 159.398438 50.277344 C 163.121094 50.277344 167.105469 50.019531 170.914062 50.363281 C 176.625 50.882812 179.828125 48.980469 181.386719 43.007812 C 183.378906 35.476562 186.492188 28.292969 191.082031 21.019531 C 193.503906 28.378906 196.1875 35.648438 198.09375 43.179688 C 199.476562 48.546875 201.726562 50.796875 207.613281 50.449219 C 215.316406 49.84375 223.109375 50.277344 230.898438 50.277344 C 231.15625 51.058594 231.503906 51.75 231.765625 52.527344 C 223.972656 58.15625 216.269531 63.695312 207.960938 69.667969 C 210.644531 78.582031 213.328125 87.5 216.011719 96.414062 C 215.578125 96.761719 215.058594 97.191406 214.625 97.539062 C 208.910156 93.644531 202.941406 90.179688 197.660156 85.851562 C 192.726562 81.785156 188.917969 81.007812 183.636719 85.679688 C 178.355469 90.355469 171.953125 93.902344 164.507812 96.671875 C 166.324219 90.269531 167.535156 83.515625 170.21875 77.457031 C 172.902344 71.050781 161.21875 52.007812 159.398438 50.277344 Z M 148.667969 228.933594 C 156.371094 228.933594 164.074219 228.675781 171.691406 229.023438 C 177.144531 229.28125 180 227.984375 181.472656 222.183594 C 183.464844 214.394531 186.753906 206.949219 191.339844 199.160156 C 193.675781 206.515625 196.621094 213.699219 198.265625 221.144531 C 199.738281 227.898438 203.113281 229.714844 209.605469 229.195312 C 216.789062 228.589844 223.972656 229.023438 231.246094 229.023438 C 231.503906 229.800781 231.675781 230.582031 231.9375 231.359375 C 226.398438 235.253906 221.03125 239.582031 215.144531 243.042969 C 209 246.679688 206.921875 250.574219 210.125 257.5 C 212.722656 263.039062 213.933594 269.097656 214.367188 276.109375 C 206.402344 270.832031 198.4375 265.550781 190.042969 259.921875 C 182.078125 265.289062 174.027344 270.742188 165.980469 276.109375 C 165.460938 275.851562 164.855469 275.503906 164.335938 275.246094 C 166.324219 268.148438 167.882812 260.960938 170.308594 254.039062 C 171.953125 249.191406 170.652344 246.59375 166.585938 243.996094 C 160.265625 240.015625 154.207031 235.601562 148.0625 231.359375 C 148.320312 230.582031 148.492188 229.714844 148.667969 228.933594 Z M 124.34375 348.386719 C 116.46875 353.925781 108.761719 359.292969 101.058594 364.746094 C 100.453125 364.488281 99.847656 364.140625 99.328125 363.882812 C 101.839844 355.050781 104.347656 346.222656 107.03125 336.613281 C 99.5 331.074219 91.539062 325.1875 83.574219 319.390625 C 83.746094 318.609375 84.007812 317.832031 84.179688 317.140625 C 90.757812 317.140625 97.425781 316.792969 104.003906 317.226562 C 110.582031 317.746094 114.476562 316.1875 115.949219 308.828125 C 117.246094 301.992188 120.1875 295.5 122.441406 288.835938 C 123.21875 288.746094 123.996094 288.574219 124.863281 288.488281 C 126.941406 295.152344 129.710938 301.730469 131.007812 308.65625 C 132.480469 316.101562 136.289062 318.179688 143.386719 317.570312 C 150.226562 316.964844 157.238281 317.398438 164.074219 317.398438 C 164.074219 318.351562 164.160156 319.304688 164.160156 320.167969 C 158.1875 324.324219 152.390625 328.738281 146.15625 332.632812 C 142.175781 335.058594 141.308594 337.738281 142.867188 342.066406 C 145.378906 349.078125 147.542969 356.351562 148.40625 364.488281 C 140.445312 359.207031 132.480469 353.839844 124.34375 348.386719 Z M 210.210938 436.070312 C 212.71875 442.304688 214.453125 448.796875 215.144531 456.238281 C 207.007812 450.785156 198.871094 445.246094 190.648438 439.707031 C 182.339844 445.507812 174.203125 451.21875 166.066406 456.933594 C 165.546875 456.585938 164.941406 456.238281 164.421875 455.894531 C 166.5 448.796875 168.054688 441.523438 170.824219 434.6875 C 173.164062 428.886719 171.34375 425.855469 166.5 422.828125 C 160.351562 419.105469 154.554688 414.691406 148.667969 410.535156 C 148.925781 409.671875 149.273438 408.890625 149.53125 408.027344 C 157.582031 408.027344 165.632812 407.851562 173.683594 408.113281 C 178.183594 408.285156 180.433594 406.8125 181.734375 402.226562 C 184.070312 394.175781 187.097656 386.472656 191.6875 378.421875 C 194.890625 388.289062 198.09375 398.070312 201.46875 408.457031 C 211.941406 408.457031 222.070312 408.457031 232.28125 408.457031 C 232.542969 409.066406 232.800781 409.671875 233.0625 410.191406 C 226.828125 414.605469 220.945312 419.539062 214.367188 423.261719 C 208.394531 426.722656 207.875 430.445312 210.210938 436.070312 Z M 257.90625 348.472656 C 250.199219 353.753906 242.324219 359.292969 234.359375 364.746094 C 233.753906 364.488281 233.234375 364.3125 232.628906 364.054688 C 234.621094 357.042969 236.179688 349.859375 238.773438 343.019531 C 240.59375 338.171875 239.46875 335.578125 235.398438 332.980469 C 229.082031 328.910156 223.019531 324.410156 216.875 320.082031 C 217.046875 319.128906 217.136719 318.179688 217.308594 317.226562 C 224.664062 317.226562 232.023438 316.878906 239.292969 317.3125 C 244.746094 317.660156 247.605469 316.101562 248.902344 310.300781 C 250.546875 303.03125 253.578125 296.019531 258.078125 288.660156 C 260.5 295.84375 263.445312 302.945312 265.175781 310.300781 C 266.648438 316.445312 269.761719 317.917969 275.5625 317.570312 C 282.660156 317.140625 289.84375 317.484375 297.027344 317.484375 C 297.203125 318.351562 297.375 319.128906 297.546875 319.996094 C 291.402344 324.324219 285.515625 328.910156 279.113281 332.804688 C 275.214844 335.144531 274.695312 337.566406 276.082031 341.460938 C 278.679688 348.820312 280.84375 356.265625 281.882812 364.660156 C 274.089844 359.464844 266.300781 354.1875 257.90625 348.472656 Z M 343.078125 434.945312 C 345.675781 441.609375 347.753906 448.535156 348.359375 456.324219 C 340.308594 450.871094 332.257812 445.417969 323.777344 439.707031 C 315.378906 445.679688 307.503906 451.304688 299.625 456.933594 C 299.105469 456.671875 298.5 456.414062 297.980469 456.152344 C 299.539062 450.441406 300.320312 444.292969 302.828125 439.015625 C 306.898438 430.273438 304.472656 424.992188 296.335938 420.664062 C 291.230469 417.980469 286.816406 414.085938 282.054688 410.710938 C 282.3125 409.84375 282.574219 408.976562 282.746094 408.199219 C 290.449219 408.199219 298.15625 407.765625 305.773438 408.371094 C 311.484375 408.804688 313.996094 406.726562 315.554688 401.359375 C 317.628906 393.832031 320.660156 386.644531 324.988281 379.203125 C 327.152344 385.695312 329.921875 392.097656 331.480469 398.765625 C 333.210938 406.296875 336.585938 409.671875 344.808594 408.546875 C 351.5625 407.679688 358.574219 408.371094 365.496094 408.371094 C 365.757812 409.152344 365.929688 409.929688 366.191406 410.710938 C 359.699219 415.296875 353.378906 420.144531 346.628906 424.300781 C 341.953125 427.070312 341.261719 430.097656 343.078125 434.945312 Z M 390.511719 348.648438 C 382.550781 354.011719 374.585938 359.378906 364.546875 366.132812 C 367.316406 356.785156 369.046875 349.683594 371.46875 342.933594 C 373.199219 338.257812 372.164062 335.402344 367.921875 332.804688 C 361.601562 328.824219 355.542969 324.324219 349.398438 320.082031 C 349.65625 319.128906 350.003906 318.265625 350.261719 317.3125 C 357.792969 317.3125 365.324219 316.964844 372.769531 317.398438 C 377.789062 317.746094 379.953125 316.015625 381.164062 311.167969 C 383.15625 303.460938 386.011719 295.933594 388.523438 288.402344 C 389.214844 288.402344 389.992188 288.402344 390.6875 288.402344 C 392.851562 294.980469 395.535156 301.472656 397.089844 308.222656 C 398.734375 315.582031 402.199219 318.695312 410.074219 317.660156 C 416.308594 316.878906 422.800781 317.484375 429.203125 317.484375 C 429.464844 318.351562 429.722656 319.128906 429.984375 319.996094 C 424.269531 323.890625 418.816406 328.21875 412.84375 331.59375 C 407.480469 334.625 406.613281 337.914062 408.949219 343.453125 C 411.632812 349.773438 413.363281 356.609375 413.882812 364.402344 C 406.179688 359.207031 398.476562 354.011719 390.511719 348.648438 Z M 476.984375 434.511719 C 479.84375 441.089844 481.3125 448.277344 484.167969 457.710938 C 474.214844 450.960938 466.339844 445.59375 457.683594 439.792969 C 449.546875 445.332031 441.238281 451.132812 430.675781 458.402344 C 433.445312 449.140625 435.175781 442.21875 437.6875 435.464844 C 439.765625 430.011719 438.898438 426.464844 433.707031 423.347656 C 427.472656 419.625 421.761719 415.125 415.789062 410.96875 C 415.875 410.105469 416.046875 409.152344 416.132812 408.285156 C 423.40625 408.285156 430.761719 407.851562 438.035156 408.460938 C 444.265625 408.976562 447.46875 406.988281 449.027344 400.84375 C 450.929688 393.570312 453.789062 386.472656 458.375 378.941406 C 460.886719 386.734375 463.65625 394.4375 465.820312 402.3125 C 467.117188 407.074219 469.109375 408.890625 474.214844 408.632812 C 482.4375 408.113281 490.660156 408.460938 498.972656 408.460938 C 499.144531 409.238281 499.402344 409.929688 499.578125 410.710938 C 493.257812 415.125 487.113281 419.796875 480.621094 423.953125 C 476.207031 426.636719 474.820312 429.320312 476.984375 434.511719 Z M 523.292969 348.734375 C 515.417969 354.101562 507.628906 359.464844 499.835938 364.746094 C 499.230469 364.488281 498.625 364.140625 498.019531 363.882812 C 500.011719 357.128906 501.742188 350.292969 504.164062 343.710938 C 506.070312 338.519531 505.203125 335.316406 500.183594 332.460938 C 493.863281 328.824219 488.152344 324.324219 482.179688 320.167969 C 482.351562 319.214844 482.4375 318.265625 482.613281 317.3125 C 489.882812 317.3125 497.152344 316.878906 504.425781 317.398438 C 510.050781 317.832031 512.734375 316.015625 514.121094 310.472656 C 516.023438 303.03125 518.792969 295.757812 521.21875 288.488281 C 521.910156 288.488281 522.6875 288.488281 523.382812 288.402344 C 525.804688 295.757812 528.746094 302.945312 530.566406 310.386719 C 532.035156 316.359375 534.980469 318.003906 540.867188 317.570312 C 548.050781 317.050781 555.234375 317.398438 562.503906 317.398438 C 562.765625 318.265625 563.113281 319.042969 563.371094 319.910156 C 557.484375 323.976562 551.773438 328.21875 545.714844 331.855469 C 541.210938 334.539062 539.742188 337.222656 541.816406 342.414062 C 544.5 349.164062 546.144531 356.265625 546.839844 364.574219 C 539.136719 359.464844 531.257812 354.101562 523.292969 348.734375 Z M 523.292969 348.734375 " fill-opacity="1" fill-rule="nonzero"/><path fill="#303134" d="M 123.910156 564.785156 C 125.46875 570.324219 126.941406 575.777344 128.929688 582.875 C 137.414062 585.125 145.722656 590.925781 149.359375 602.179688 C 150.226562 604.6875 152.390625 607.71875 154.726562 608.757812 C 170.738281 615.769531 177.75 626.414062 176.886719 643.898438 C 176.710938 646.757812 176.453125 649.699219 176.191406 653.074219 C 196.273438 653.074219 215.75 653.074219 235.3125 653.074219 C 239.640625 637.148438 239.640625 637.148438 257.472656 637.148438 C 482.003906 637.148438 706.625 637.148438 931.160156 637.148438 C 1028.019531 637.148438 1124.964844 637.0625 1221.824219 637.234375 C 1228.230469 637.234375 1231.78125 635.9375 1233.339844 629.097656 C 1235.589844 619.230469 1242.945312 613.515625 1252.207031 610.402344 C 1256.96875 608.757812 1259.132812 605.988281 1259.304688 600.878906 C 1259.738281 587.289062 1267.269531 578.199219 1278.695312 571.882812 C 1281.464844 570.410156 1284.0625 568.679688 1286.746094 567.035156 C 1286.484375 566.257812 1286.226562 565.5625 1285.964844 564.785156 C 898.09375 564.785156 510.222656 564.785156 123.910156 564.785156 Z M 123.910156 564.785156 " fill-opacity="1" fill-rule="nonzero"/><path fill="#303134" d="M 1404.636719 126.363281 C 1398.925781 121.34375 1393.125 116.320312 1387.847656 110.867188 C 1385.164062 108.097656 1382.824219 104.550781 1381.699219 100.914062 C 1378.84375 91.566406 1377.285156 81.871094 1374.429688 72.523438 C 1370.273438 59.191406 1364.300781 55.816406 1350.453125 57.722656 C 1346.992188 58.242188 1343.007812 60.144531 1340.066406 59.019531 C 1330.199219 55.382812 1328.464844 61.789062 1327.601562 68.542969 C 1325.609375 85.765625 1324.3125 103.164062 1322.234375 120.390625 C 1321.800781 124.285156 1320.242188 128.960938 1317.472656 131.296875 C 1311.242188 136.578125 1303.882812 140.644531 1297.132812 145.320312 C 1286.140625 152.851562 1273.5 155.101562 1260.691406 155.535156 C 1245.371094 156.054688 1233.164062 161.765625 1224.941406 174.75 C 1218.710938 184.617188 1212.5625 194.570312 1207.285156 204.957031 C 1205.898438 207.730469 1206.589844 213.007812 1208.410156 215.777344 C 1217.496094 229.453125 1214.988281 240.707031 1200.101562 247.460938 C 1196.03125 249.277344 1191.269531 250.054688 1186.769531 250.402344 C 1173.09375 251.527344 1160.28125 254.988281 1148.164062 262 C 1149.03125 264.164062 1149.460938 265.722656 1150.242188 267.109375 C 1154.222656 274.121094 1153.789062 280.179688 1148.855469 287.277344 C 1135.613281 306.058594 1118.820312 320.859375 1101.164062 334.96875 C 1098.566406 337.046875 1096.054688 339.210938 1093.285156 341.550781 C 1094.585938 342.328125 1094.757812 342.585938 1094.929688 342.585938 C 1158.292969 342.585938 1221.738281 342.675781 1285.101562 342.5 C 1287.089844 342.5 1290.292969 341.203125 1290.988281 339.644531 C 1293.324219 334.363281 1297.304688 334.710938 1301.894531 334.882812 C 1312.105469 335.316406 1330.285156 323.632812 1333.832031 315.148438 C 1320.070312 320.253906 1305.789062 325.535156 1291.59375 330.730469 C 1290.988281 329.863281 1290.378906 328.996094 1289.773438 328.046875 C 1291.246094 325.707031 1292.199219 322.765625 1294.277344 321.292969 C 1303.539062 314.890625 1312.972656 308.484375 1322.753906 302.855469 C 1330.023438 298.703125 1337.988281 295.84375 1345.691406 292.296875 C 1350.367188 290.132812 1351.925781 287.101562 1350.105469 281.824219 C 1348.808594 278.015625 1349.15625 273.6875 1348.808594 269.617188 C 1349.671875 269.445312 1350.453125 269.183594 1351.320312 269.011719 C 1353.394531 274.03125 1355.472656 279.054688 1357.984375 284.9375 C 1363.003906 280.871094 1367.417969 277.320312 1372.613281 273.082031 C 1359.714844 265.550781 1354.089844 254.644531 1353.480469 240.535156 C 1350.886719 241.140625 1348.894531 241.574219 1344.738281 242.523438 C 1346.558594 229.023438 1349.328125 217.164062 1349.414062 205.304688 C 1349.5 190.503906 1356.683594 181.585938 1369.582031 177.085938 C 1376.507812 174.664062 1378.410156 170.59375 1376.941406 164.277344 C 1375.554688 158.476562 1378.410156 156.570312 1383.257812 154.234375 C 1390.960938 150.425781 1398.148438 145.578125 1404.984375 140.386719 C 1410.351562 136.492188 1410.179688 131.210938 1404.636719 126.363281 Z M 1404.636719 126.363281 " fill-opacity="1" fill-rule="nonzero"/><path fill="#303134" d="M 982.058594 203.921875 C 983.183594 206.949219 985.171875 212.574219 987.164062 218.117188 C 986.386719 218.636719 985.691406 219.15625 984.914062 219.671875 C 980.5 217.078125 976.085938 214.480469 972.621094 212.402344 C 960.15625 221.40625 958.6875 233.78125 958.945312 247.027344 C 959.03125 251.875 956.867188 256.722656 957.042969 261.566406 C 957.214844 269.878906 955.742188 279.660156 959.550781 286.066406 C 970.285156 304.070312 975.21875 321.8125 965.179688 342.675781 C 986.210938 342.675781 1005.515625 342.675781 1024.816406 342.675781 C 1045.765625 342.675781 1048.621094 340.25 1052.601562 319.214844 C 1052.949219 317.3125 1052.777344 315.234375 1053.554688 313.589844 C 1055.199219 310.214844 1056.671875 305.886719 1059.613281 304.15625 C 1067.492188 299.566406 1070.089844 292.644531 1068.355469 284.765625 C 1065.847656 273.425781 1062.296875 262.175781 1058.144531 251.269531 C 1055.199219 243.304688 1051.476562 243.21875 1045.765625 249.363281 C 1042.042969 253.34375 1038.667969 257.847656 1034.253906 260.875 C 1031.65625 262.605469 1027.328125 261.742188 1023.867188 262.085938 C 1023.691406 258.625 1022.480469 254.730469 1023.691406 251.785156 C 1025.597656 247.113281 1029.320312 243.132812 1031.828125 238.628906 C 1037.28125 228.933594 1037.023438 205.304688 1030.355469 199.679688 C 1018.5 189.722656 1003.4375 187.128906 990.453125 182.800781 C 987.335938 190.242188 985.085938 196.128906 982.058594 203.921875 Z M 982.058594 203.921875 " fill-opacity="1" fill-rule="nonzero"/><path fill="#303134" d="M 1256.96875 421.441406 C 1261.125 424.472656 1264.84375 428.539062 1269.433594 430.273438 C 1278.003906 433.386719 1281.207031 439.015625 1280.859375 447.671875 C 1280.597656 453.46875 1280.773438 459.355469 1280.773438 465.242188 C 1281.550781 465.242188 1282.242188 465.328125 1283.023438 465.328125 C 1285.621094 450.09375 1288.214844 434.773438 1290.8125 419.105469 C 1278.609375 419.105469 1268.394531 419.105469 1258.09375 419.105469 C 1257.746094 419.882812 1257.402344 420.664062 1256.96875 421.441406 Z M 1256.96875 421.441406 " fill-opacity="1" fill-rule="nonzero"/><path fill="#303134" d="M 1228.316406 850.082031 C 1222.257812 840.214844 1215.074219 830.605469 1216.460938 817.796875 C 1216.632812 816.410156 1214.816406 814.59375 1213.601562 813.210938 C 1188.847656 783.777344 1171.621094 752.183594 1183.914062 710.550781 C 889.785156 710.550781 596.4375 710.550781 303 710.550781 C 309.148438 714.617188 315.378906 718.601562 322.042969 720.070312 C 342.125 724.574219 362.554688 727.773438 382.722656 732.101562 C 390.253906 733.746094 393.371094 731.066406 393.886719 723.964844 C 394.40625 717.386719 397.957031 716.347656 403.929688 717.5625 C 415.355469 719.898438 427.039062 721.195312 438.464844 723.535156 C 441.753906 724.226562 445.21875 726.476562 447.554688 728.902344 C 456.730469 738.507812 464.78125 749.5 474.734375 758.070312 C 486.851562 768.457031 496.460938 779.191406 498.539062 795.984375 C 499.835938 806.371094 505.550781 815.546875 514.984375 821.257812 C 525.890625 827.835938 537.058594 833.898438 548.484375 840.476562 C 551.511719 834.417969 554.109375 828.183594 557.570312 822.382812 C 565.363281 809.402344 577.394531 804.898438 591.847656 809.3125 C 604.140625 813.121094 613.402344 820.828125 618.855469 832.597656 C 622.058594 839.523438 624.308594 846.792969 627.339844 853.804688 C 630.800781 861.855469 634.523438 869.820312 638.589844 878.820312 C 640.929688 874.578125 642.3125 871.808594 644.5625 867.742188 C 646.46875 871.464844 648.113281 873.714844 648.804688 876.136719 C 650.796875 883.839844 655.554688 886.4375 663.347656 885.746094 C 670.445312 885.140625 677.628906 885.660156 684.8125 885.660156 C 684.988281 886.351562 685.074219 887.128906 685.246094 887.824219 C 678.148438 891.113281 671.398438 895.527344 663.953125 897.34375 C 656.335938 899.164062 657.203125 902.710938 659.019531 907.90625 C 659.710938 909.722656 660.921875 911.714844 660.664062 913.359375 C 659.105469 922.015625 663.175781 934.738281 670.703125 937.941406 C 689.054688 945.730469 707.925781 952.570312 726.535156 959.753906 C 727.3125 959.0625 728.007812 958.367188 728.785156 957.675781 C 726.792969 950.835938 725.324219 943.828125 722.726562 937.25 C 721.6875 934.476562 718.917969 931.707031 716.234375 930.324219 C 710.175781 927.292969 706.453125 922.792969 707.40625 916.214844 C 708.359375 909.550781 714.242188 909.550781 719.609375 909.460938 C 720.042969 909.460938 720.476562 908.855469 721.167969 908.335938 C 722.554688 892.238281 729.046875 878.386719 742.980469 869.386719 C 763.496094 856.230469 781.671875 840.648438 799.15625 823.597656 C 813.265625 809.832031 831.011719 806.804688 849.96875 812.777344 C 854.121094 814.074219 858.277344 815.460938 862.433594 816.757812 C 867.105469 818.230469 870.308594 818.144531 872.386719 812.257812 C 873.339844 809.574219 880.089844 806.109375 881.390625 806.976562 C 886.667969 810.613281 892.640625 815.113281 894.890625 820.652344 C 898.007812 828.269531 902.335938 832.511719 910.300781 830.78125 C 914.714844 829.828125 919.300781 829.742188 924.324219 829.222656 C 924.324219 829.222656 923.371094 827.664062 923.542969 826.28125 C 923.976562 823.335938 924.929688 820.480469 925.707031 817.625 C 928.042969 818.488281 930.554688 819.179688 932.804688 820.394531 C 938.519531 823.421875 944.058594 826.796875 949.945312 829.65625 C 951.242188 830.261719 953.320312 829.222656 955.136719 828.875 C 954.703125 827.144531 954.792969 824.722656 953.664062 823.855469 C 949.769531 821 945.441406 818.75 941.203125 816.324219 C 934.277344 812.429688 927.265625 808.707031 920.253906 804.898438 C 920.167969 803.945312 920.082031 802.996094 920.082031 802.042969 C 931.59375 807.582031 936.007812 800.917969 941.027344 793.214844 C 946.222656 785.164062 954.878906 783.171875 964.140625 784.558594 C 970.890625 785.511719 977.644531 787.066406 979.027344 776.765625 C 986.992188 788.28125 986.992188 788.28125 1000.0625 784.125 C 1001.878906 783.519531 1003.695312 783 1005.515625 782.308594 C 1026.460938 773.996094 1045.246094 773.996094 1059.875 794.597656 C 1064.375 800.917969 1071.125 800.65625 1077.359375 796.417969 C 1080.214844 794.425781 1082.8125 791.914062 1085.410156 789.492188 C 1099.519531 776.421875 1110.945312 777.199219 1123.925781 791.308594 C 1130.679688 798.582031 1138.296875 805.160156 1146.085938 811.390625 C 1151.195312 815.460938 1154.136719 819.441406 1153.53125 826.453125 C 1152.839844 835.542969 1153.359375 844.714844 1153.359375 853.804688 C 1164.003906 854.324219 1163.570312 854.324219 1163.226562 864.882812 C 1163.140625 868.78125 1164.695312 873.714844 1167.207031 876.65625 C 1173.699219 883.925781 1181.316406 890.246094 1188.066406 897.257812 C 1190.40625 899.59375 1193.089844 902.96875 1193.089844 905.914062 C 1193.175781 911.972656 1195.859375 914.308594 1201.226562 914.914062 C 1208.582031 915.78125 1213.6875 919.9375 1217.066406 926.339844 C 1219.660156 931.101562 1222 936.035156 1224.769531 940.710938 C 1225.808594 942.441406 1227.367188 944.519531 1229.097656 945.039062 C 1234.378906 946.683594 1247.449219 940.191406 1249.09375 934.910156 C 1255.410156 913.964844 1257.230469 893.191406 1244.246094 873.714844 C 1238.964844 865.921875 1233.25 858.21875 1228.316406 850.082031 Z M 1228.316406 850.082031 " fill-opacity="1" fill-rule="nonzero"/></svg>